<?xml version="1.0" encoding="utf-8"?>
<svg viewBox="0 0 500 500" xmlns="http://www.w3.org/2000/svg">
  <title>Spotify</title>
  <path d="M 249.439 1.037 C 111.708 1.037 -0.086 112.329 -0.086 249.44 C -0.086 386.848 111.708 497.843 249.439 497.843 C 387.467 497.843 498.964 386.551 498.964 249.44 C 498.964 112.329 387.467 1.037 249.439 1.037 Z M 363.618 359.544 C 359.444 366.964 349.904 369.041 342.749 364.589 C 283.722 328.976 210.087 320.963 123.037 340.848 C 114.689 342.332 106.342 337.285 104.553 328.976 C 103.957 320.666 109.024 312.356 116.478 310.576 C 211.876 288.911 294.157 298.111 359.743 338.176 C 367.494 342.628 369.879 352.125 365.109 359.544 Z M 394.921 291.88 C 388.957 300.783 377.034 303.75 368.09 298.408 C 301.013 256.86 198.759 244.989 119.459 269.324 C 109.919 272.291 98.591 266.356 95.61 256.562 C 92.628 246.769 98.591 235.789 109.323 232.821 C 199.951 206.111 312.64 219.465 389.555 265.465 C 398.497 271.402 401.478 283.273 395.517 292.176 Z M 397.902 221.246 C 317.41 173.762 184.449 169.311 107.534 192.459 C 95.61 196.317 83.089 189.491 79.214 177.026 C 75.338 165.155 82.195 151.8 94.716 147.942 C 182.959 121.232 329.632 126.574 422.049 181.181 C 433.079 187.71 436.955 201.955 430.099 212.936 C 424.135 224.214 409.229 227.775 398.497 221.246 Z" style="fill: rgb(28, 185, 85);"/>
</svg>